<svg xmlns="http://www.w3.org/2000/svg" width="20" height="22.851" viewBox="0 0 20 22.851">
  <path id="路径_263" data-name="路径 263" d="M227.784,331.689H219.21A5.729,5.729,0,0,0,213.5,337.4v11.425a5.729,5.729,0,0,0,5.713,5.713h8.575a5.729,5.729,0,0,0,5.713-5.713V337.4A5.729,5.729,0,0,0,227.784,331.689Zm-9.069,5.623h4.553a.729.729,0,0,1,0,1.459h-4.553a.729.729,0,1,1,0-1.459Zm2.743,9.846h-2.743a.729.729,0,1,1,0-1.459h2.743a.729.729,0,1,1,0,1.459Zm4.031-4.194h-6.774a.729.729,0,1,1,0-1.459h6.774a.729.729,0,1,1,0,1.459Z" transform="translate(-213.497 -331.689)" fill="#fff"/>
</svg>
