<svg xmlns="http://www.w3.org/2000/svg" width="18.164" height="20" viewBox="0 0 18.164 20">
  <g id="组_727" data-name="组 727" transform="translate(-63.844 -422.588)">
    <path id="路径_268" data-name="路径 268" d="M80.181,442.588H76.766a1.828,1.828,0,0,1-1.826-1.826v-6.23a.262.262,0,0,0-.261-.261h-3.5a.262.262,0,0,0-.261.261v6.23a1.828,1.828,0,0,1-1.826,1.826H65.67a1.828,1.828,0,0,1-1.826-1.826v-9.847a1.831,1.831,0,0,1,.608-1.361l7.259-6.5a1.826,1.826,0,0,1,2.429-.007l7.252,6.414a1.822,1.822,0,0,1,.616,1.367v9.934A1.828,1.828,0,0,1,80.181,442.588ZM71.174,432.7h3.5a1.828,1.828,0,0,1,1.826,1.826v6.23a.261.261,0,0,0,.261.261h3.415a.261.261,0,0,0,.261-.261v-9.934a.26.26,0,0,0-.087-.194L73.1,424.218a.259.259,0,0,0-.347,0l-7.259,6.5a.262.262,0,0,0-.088.194v9.847a.262.262,0,0,0,.261.261h3.416a.262.262,0,0,0,.261-.261v-6.23A1.828,1.828,0,0,1,71.174,432.7Z" transform="translate(0)" fill="#333"/>
  </g>
</svg>
