<svg xmlns="http://www.w3.org/2000/svg" width="19.083" height="20" viewBox="0 0 19.083 20">
  <path id="路径_278" data-name="路径 278" d="M180.764,541.846a9.871,9.871,0,0,0-7.191-6.074,4.781,4.781,0,1,0-4.11,0,9.868,9.868,0,0,0-7.19,6.074,3.453,3.453,0,0,0,3.161,4.846H177.6a3.454,3.454,0,0,0,3.162-4.846Zm-12.572-10.373a3.327,3.327,0,1,1,3.326,3.327A3.33,3.33,0,0,1,168.193,531.474Zm11.088,12.851a2,2,0,0,1-1.677.912H165.435a2,2,0,0,1-1.677-.912,1.956,1.956,0,0,1-.153-1.889,8.485,8.485,0,0,1,15.83,0A1.956,1.956,0,0,1,179.28,544.325Z" transform="translate(-161.978 -526.692)" fill="#333"/>
</svg>
