<svg xmlns="http://www.w3.org/2000/svg" width="25.533" height="32" viewBox="0 0 25.533 32">
  <g id="组_762" data-name="组 762" transform="translate(-386.483 -504)">
    <path id="路径_286" data-name="路径 286" d="M399.25,504c-7.278,0-12.767,5.878-12.767,13.672,0,7.372,8.371,18.328,12.767,18.328s12.767-10.956,12.767-18.328C412.017,509.878,406.528,504,399.25,504Zm0,30c-2.734,0-10.767-9.634-10.767-16.328,0-6.763,4.528-11.672,10.767-11.672s10.767,4.909,10.767,11.672C410.017,524.366,401.984,534,399.25,534Z" fill="#29c097"/>
    <path id="路径_287" data-name="路径 287" d="M399.25,511.146a5.577,5.577,0,1,0,5.577,5.577A5.583,5.583,0,0,0,399.25,511.146Zm0,9.153a3.577,3.577,0,1,1,3.577-3.576A3.581,3.581,0,0,1,399.25,520.3Z" fill="#29c097"/>
  </g>
</svg>
