<svg xmlns="http://www.w3.org/2000/svg" width="30" height="30" viewBox="0 0 30 30">
  <g id="组_765" data-name="组 765" transform="translate(-473 -505)">
    <path id="路径_288" data-name="路径 288" d="M488,505a15,15,0,1,0,15,15A15.017,15.017,0,0,0,488,505Zm0,28a13,13,0,1,1,13-13A13.015,13.015,0,0,1,488,533Z" fill="#2474ff"/>
    <path id="路径_289" data-name="路径 289" d="M491.162,520.145a1,1,0,0,0,0-2h-1.946l2.384-2.384a1,1,0,0,0-1.414-1.414L488,516.532l-2.186-2.185a1,1,0,0,0-1.414,1.414l2.384,2.384h-1.946a1,1,0,0,0,0,2H487v1.3h-2.162a1,1,0,0,0,0,2H487v3.5a1,1,0,0,0,2,0v-3.5h2.162a1,1,0,0,0,0-2H489v-1.3Z" fill="#2474ff"/>
  </g>
</svg>
