<svg xmlns="http://www.w3.org/2000/svg" width="30" height="30" viewBox="0 0 30 30">
  <g id="组_770" data-name="组 770" transform="translate(-297.115 -505)">
    <g id="组_766" data-name="组 766">
      <path id="路径_292" data-name="路径 292" d="M312.561,535a15.254,15.254,0,0,1-15.446-14.961A15,15,0,0,1,312.154,505a15.252,15.252,0,0,1,14.961,15.445A14.571,14.571,0,0,1,312.561,535Zm-.446-28a13,13,0,0,0-13,13.033A13.251,13.251,0,0,0,312.561,533a12.569,12.569,0,0,0,12.554-12.555A13.251,13.251,0,0,0,312.149,507Z" fill="#644eff"/>
    </g>
    <g id="组_767" data-name="组 767">
      <circle id="椭圆_117" data-name="椭圆 117" cx="2" cy="2" r="2" transform="translate(303.811 518)" fill="#644eff"/>
    </g>
    <g id="组_768" data-name="组 768">
      <circle id="椭圆_118" data-name="椭圆 118" cx="2" cy="2" r="2" transform="translate(310.115 518)" fill="#644eff"/>
    </g>
    <g id="组_769" data-name="组 769">
      <circle id="椭圆_119" data-name="椭圆 119" cx="2" cy="2" r="2" transform="translate(316.419 518)" fill="#644eff"/>
    </g>
  </g>
</svg>
