<svg xmlns="http://www.w3.org/2000/svg" width="30" height="30" viewBox="0 0 30 30">
  <g id="组_764" data-name="组 764" transform="translate(-561 -505)">
    <path id="路径_290" data-name="路径 290" d="M576,505a15,15,0,1,0,15,15A15.017,15.017,0,0,0,576,505Zm0,28a13,13,0,1,1,13-13A13.015,13.015,0,0,1,576,533Z" fill="#ff9431"/>
    <path id="路径_291" data-name="路径 291" d="M580.159,514.59l-6.959,2.156a1,1,0,0,0-.665.678l-1.95,6.753a1,1,0,0,0,.961,1.277,1.012,1.012,0,0,0,.3-.048l6.595-2.107a1,1,0,0,0,.642-.63l2.313-6.8a1,1,0,0,0-1.242-1.277Zm-2.8,6.958-4.331,1.384,1.282-4.435,4.568-1.416Z" fill="#ff9431"/>
  </g>
</svg>
