<svg xmlns="http://www.w3.org/2000/svg" width="20" height="20.001" viewBox="0 0 20 20.001">
  <g id="组_732" data-name="组 732" transform="translate(-101.39 -455.952)">
    <g id="组_728" data-name="组 728">
      <path id="路径_272" data-name="路径 272" d="M111.39,470.565a.7.7,0,0,1-.7-.7v-7.829a.7.7,0,0,1,1.4,0v7.829A.7.7,0,0,1,111.39,470.565Z" fill="#333"/>
    </g>
    <g id="组_729" data-name="组 729">
      <path id="路径_273" data-name="路径 273" d="M115.3,466.651h-7.829a.7.7,0,0,1,0-1.4H115.3a.7.7,0,0,1,0,1.4Z" fill="#333"/>
    </g>
    <g id="组_730" data-name="组 730">
      <path id="路径_274" data-name="路径 274" d="M111.39,475.953a10,10,0,1,1,7.074-17.075h0a10,10,0,0,1-7.074,17.075Zm0-18.606a8.606,8.606,0,1,0,6.087,2.518A8.58,8.58,0,0,0,111.39,457.347Z" fill="#333"/>
    </g>
  </g>
</svg>
